<mxfile host="app.diagrams.net" modified="2023-10-22T08:40:46.557Z" agent="Mozilla/5.0 (Windows NT 10.0; Win64; x64) AppleWebKit/537.36 (KHTML, like Gecko) Chrome/118.0.0.0 Safari/537.36" etag="wFZNgjyHDUoajw2NjaVI" version="22.0.6" type="device">
  <diagram name="Page-1" id="f459HPewDTde1PB3hY76">
    <mxGraphModel dx="1008" dy="505" grid="1" gridSize="10" guides="1" tooltips="1" connect="1" arrows="1" fold="1" page="1" pageScale="1" pageWidth="850" pageHeight="1100" math="0" shadow="0">
      <root>
        <mxCell id="0" />
        <mxCell id="1" parent="0" />
        <mxCell id="3meQ3bszGM3F0p9aKv_--1" value="USER" style="rounded=0;whiteSpace=wrap;html=1;" vertex="1" parent="1">
          <mxGeometry x="140" y="150" width="120" height="60" as="geometry" />
        </mxCell>
        <mxCell id="3meQ3bszGM3F0p9aKv_--2" value="CONTACT" style="rounded=0;whiteSpace=wrap;html=1;" vertex="1" parent="1">
          <mxGeometry x="650" y="130" width="120" height="60" as="geometry" />
        </mxCell>
        <mxCell id="3meQ3bszGM3F0p9aKv_--4" value="userName" style="ellipse;whiteSpace=wrap;html=1;" vertex="1" parent="1">
          <mxGeometry x="10" y="80" width="80" height="30" as="geometry" />
        </mxCell>
        <mxCell id="3meQ3bszGM3F0p9aKv_--5" value="Email" style="ellipse;whiteSpace=wrap;html=1;" vertex="1" parent="1">
          <mxGeometry x="80" y="45" width="80" height="40" as="geometry" />
        </mxCell>
        <mxCell id="3meQ3bszGM3F0p9aKv_--6" value="password" style="ellipse;whiteSpace=wrap;html=1;" vertex="1" parent="1">
          <mxGeometry x="190" y="35" width="90" height="45" as="geometry" />
        </mxCell>
        <mxCell id="3meQ3bszGM3F0p9aKv_--7" value="image" style="ellipse;whiteSpace=wrap;html=1;" vertex="1" parent="1">
          <mxGeometry x="310" y="55" width="70" height="30" as="geometry" />
        </mxCell>
        <mxCell id="3meQ3bszGM3F0p9aKv_--10" value="Description" style="ellipse;whiteSpace=wrap;html=1;" vertex="1" parent="1">
          <mxGeometry x="300" y="100" width="110" height="30" as="geometry" />
        </mxCell>
        <mxCell id="3meQ3bszGM3F0p9aKv_--11" value="about" style="ellipse;whiteSpace=wrap;html=1;" vertex="1" parent="1">
          <mxGeometry x="340" y="140" width="110" height="30" as="geometry" />
        </mxCell>
        <mxCell id="3meQ3bszGM3F0p9aKv_--12" value="role" style="ellipse;whiteSpace=wrap;html=1;" vertex="1" parent="1">
          <mxGeometry x="10" y="170" width="70" height="30" as="geometry" />
        </mxCell>
        <mxCell id="3meQ3bszGM3F0p9aKv_--13" value="enable" style="ellipse;whiteSpace=wrap;html=1;" vertex="1" parent="1">
          <mxGeometry y="220" width="70" height="30" as="geometry" />
        </mxCell>
        <mxCell id="3meQ3bszGM3F0p9aKv_--17" value="&lt;u&gt;ID&lt;/u&gt;" style="ellipse;whiteSpace=wrap;html=1;" vertex="1" parent="1">
          <mxGeometry x="10" y="130" width="70" height="20" as="geometry" />
        </mxCell>
        <mxCell id="3meQ3bszGM3F0p9aKv_--18" value="" style="endArrow=none;html=1;rounded=0;" edge="1" parent="1" target="3meQ3bszGM3F0p9aKv_--5">
          <mxGeometry width="50" height="50" relative="1" as="geometry">
            <mxPoint x="170" y="150" as="sourcePoint" />
            <mxPoint x="150" y="90" as="targetPoint" />
          </mxGeometry>
        </mxCell>
        <mxCell id="3meQ3bszGM3F0p9aKv_--19" value="" style="endArrow=none;html=1;rounded=0;entryX=0.5;entryY=1;entryDx=0;entryDy=0;exitX=0.5;exitY=0;exitDx=0;exitDy=0;" edge="1" parent="1" source="3meQ3bszGM3F0p9aKv_--1" target="3meQ3bszGM3F0p9aKv_--6">
          <mxGeometry width="50" height="50" relative="1" as="geometry">
            <mxPoint x="200" y="140" as="sourcePoint" />
            <mxPoint x="250" y="110" as="targetPoint" />
          </mxGeometry>
        </mxCell>
        <mxCell id="3meQ3bszGM3F0p9aKv_--20" value="" style="endArrow=none;html=1;rounded=0;entryX=0;entryY=0.5;entryDx=0;entryDy=0;" edge="1" parent="1" target="3meQ3bszGM3F0p9aKv_--10">
          <mxGeometry width="50" height="50" relative="1" as="geometry">
            <mxPoint x="260" y="150" as="sourcePoint" />
            <mxPoint x="310" y="100" as="targetPoint" />
            <Array as="points">
              <mxPoint x="260" y="150" />
            </Array>
          </mxGeometry>
        </mxCell>
        <mxCell id="3meQ3bszGM3F0p9aKv_--24" value="" style="endArrow=none;html=1;rounded=0;entryX=0;entryY=0.25;entryDx=0;entryDy=0;" edge="1" parent="1" target="3meQ3bszGM3F0p9aKv_--1">
          <mxGeometry width="50" height="50" relative="1" as="geometry">
            <mxPoint x="80" y="190" as="sourcePoint" />
            <mxPoint x="130" y="140" as="targetPoint" />
          </mxGeometry>
        </mxCell>
        <mxCell id="3meQ3bszGM3F0p9aKv_--27" value="" style="endArrow=none;html=1;rounded=0;entryX=0;entryY=0.5;entryDx=0;entryDy=0;" edge="1" parent="1" target="3meQ3bszGM3F0p9aKv_--11">
          <mxGeometry width="50" height="50" relative="1" as="geometry">
            <mxPoint x="260" y="185" as="sourcePoint" />
            <mxPoint x="310" y="135" as="targetPoint" />
          </mxGeometry>
        </mxCell>
        <mxCell id="3meQ3bszGM3F0p9aKv_--28" value="" style="endArrow=none;html=1;rounded=0;entryX=0;entryY=0.5;entryDx=0;entryDy=0;exitX=0.821;exitY=0.005;exitDx=0;exitDy=0;exitPerimeter=0;" edge="1" parent="1" source="3meQ3bszGM3F0p9aKv_--1" target="3meQ3bszGM3F0p9aKv_--7">
          <mxGeometry width="50" height="50" relative="1" as="geometry">
            <mxPoint x="230" y="160" as="sourcePoint" />
            <mxPoint x="280" y="110" as="targetPoint" />
          </mxGeometry>
        </mxCell>
        <mxCell id="3meQ3bszGM3F0p9aKv_--29" value="" style="endArrow=none;html=1;rounded=0;" edge="1" parent="1" target="3meQ3bszGM3F0p9aKv_--1">
          <mxGeometry width="50" height="50" relative="1" as="geometry">
            <mxPoint x="60" y="240" as="sourcePoint" />
            <mxPoint x="110" y="190" as="targetPoint" />
          </mxGeometry>
        </mxCell>
        <mxCell id="3meQ3bszGM3F0p9aKv_--30" value="" style="endArrow=none;html=1;rounded=0;entryX=0;entryY=0;entryDx=0;entryDy=0;" edge="1" parent="1" source="3meQ3bszGM3F0p9aKv_--17" target="3meQ3bszGM3F0p9aKv_--1">
          <mxGeometry width="50" height="50" relative="1" as="geometry">
            <mxPoint x="70" y="150" as="sourcePoint" />
            <mxPoint x="130" y="150" as="targetPoint" />
          </mxGeometry>
        </mxCell>
        <mxCell id="3meQ3bszGM3F0p9aKv_--31" value="" style="endArrow=none;html=1;rounded=0;" edge="1" parent="1" source="3meQ3bszGM3F0p9aKv_--4" target="3meQ3bszGM3F0p9aKv_--1">
          <mxGeometry width="50" height="50" relative="1" as="geometry">
            <mxPoint x="70" y="135" as="sourcePoint" />
            <mxPoint x="120" y="85" as="targetPoint" />
          </mxGeometry>
        </mxCell>
        <mxCell id="3meQ3bszGM3F0p9aKv_--32" value="cid" style="ellipse;whiteSpace=wrap;html=1;" vertex="1" parent="1">
          <mxGeometry x="460" y="20" width="90" height="40" as="geometry" />
        </mxCell>
        <mxCell id="3meQ3bszGM3F0p9aKv_--33" value="Name" style="ellipse;whiteSpace=wrap;html=1;" vertex="1" parent="1">
          <mxGeometry x="570" y="20" width="90" height="40" as="geometry" />
        </mxCell>
        <mxCell id="3meQ3bszGM3F0p9aKv_--34" value="nickname" style="ellipse;whiteSpace=wrap;html=1;" vertex="1" parent="1">
          <mxGeometry x="710" y="5" width="90" height="40" as="geometry" />
        </mxCell>
        <mxCell id="3meQ3bszGM3F0p9aKv_--35" value="description" style="ellipse;whiteSpace=wrap;html=1;" vertex="1" parent="1">
          <mxGeometry x="470" y="110" width="90" height="30" as="geometry" />
        </mxCell>
        <mxCell id="3meQ3bszGM3F0p9aKv_--36" value="image" style="ellipse;whiteSpace=wrap;html=1;" vertex="1" parent="1">
          <mxGeometry x="830" y="150" width="90" height="30" as="geometry" />
        </mxCell>
        <mxCell id="3meQ3bszGM3F0p9aKv_--37" value="phone" style="ellipse;whiteSpace=wrap;html=1;" vertex="1" parent="1">
          <mxGeometry x="490" y="165" width="90" height="30" as="geometry" />
        </mxCell>
        <mxCell id="3meQ3bszGM3F0p9aKv_--38" value="work" style="ellipse;whiteSpace=wrap;html=1;" vertex="1" parent="1">
          <mxGeometry x="830" y="15" width="90" height="30" as="geometry" />
        </mxCell>
        <mxCell id="3meQ3bszGM3F0p9aKv_--39" value="email" style="ellipse;whiteSpace=wrap;html=1;" vertex="1" parent="1">
          <mxGeometry x="820" y="80" width="90" height="30" as="geometry" />
        </mxCell>
        <mxCell id="3meQ3bszGM3F0p9aKv_--40" value="" style="endArrow=none;html=1;rounded=0;entryX=0;entryY=0.25;entryDx=0;entryDy=0;" edge="1" parent="1" target="3meQ3bszGM3F0p9aKv_--2">
          <mxGeometry width="50" height="50" relative="1" as="geometry">
            <mxPoint x="580" y="180" as="sourcePoint" />
            <mxPoint x="630" y="130" as="targetPoint" />
          </mxGeometry>
        </mxCell>
        <mxCell id="3meQ3bszGM3F0p9aKv_--41" value="" style="endArrow=none;html=1;rounded=0;entryX=0.667;entryY=0.875;entryDx=0;entryDy=0;entryPerimeter=0;" edge="1" parent="1" target="3meQ3bszGM3F0p9aKv_--34">
          <mxGeometry width="50" height="50" relative="1" as="geometry">
            <mxPoint x="730" y="130" as="sourcePoint" />
            <mxPoint x="780" y="80" as="targetPoint" />
          </mxGeometry>
        </mxCell>
        <mxCell id="3meQ3bszGM3F0p9aKv_--42" value="" style="endArrow=none;html=1;rounded=0;entryX=0;entryY=1;entryDx=0;entryDy=0;" edge="1" parent="1" target="3meQ3bszGM3F0p9aKv_--39">
          <mxGeometry width="50" height="50" relative="1" as="geometry">
            <mxPoint x="770" y="160" as="sourcePoint" />
            <mxPoint x="820" y="110" as="targetPoint" />
          </mxGeometry>
        </mxCell>
        <mxCell id="3meQ3bszGM3F0p9aKv_--43" value="" style="endArrow=none;html=1;rounded=0;entryX=0.003;entryY=0.064;entryDx=0;entryDy=0;entryPerimeter=0;" edge="1" parent="1" target="3meQ3bszGM3F0p9aKv_--2">
          <mxGeometry width="50" height="50" relative="1" as="geometry">
            <mxPoint x="560" y="130" as="sourcePoint" />
            <mxPoint x="610" y="80" as="targetPoint" />
          </mxGeometry>
        </mxCell>
        <mxCell id="3meQ3bszGM3F0p9aKv_--44" value="" style="endArrow=none;html=1;rounded=0;exitX=1;exitY=0.75;exitDx=0;exitDy=0;" edge="1" parent="1" source="3meQ3bszGM3F0p9aKv_--2">
          <mxGeometry width="50" height="50" relative="1" as="geometry">
            <mxPoint x="790" y="205" as="sourcePoint" />
            <mxPoint x="840" y="155" as="targetPoint" />
          </mxGeometry>
        </mxCell>
        <mxCell id="3meQ3bszGM3F0p9aKv_--45" value="" style="endArrow=none;html=1;rounded=0;exitX=0.25;exitY=0;exitDx=0;exitDy=0;" edge="1" parent="1" source="3meQ3bszGM3F0p9aKv_--2">
          <mxGeometry width="50" height="50" relative="1" as="geometry">
            <mxPoint x="670" y="120" as="sourcePoint" />
            <mxPoint x="640" y="60" as="targetPoint" />
          </mxGeometry>
        </mxCell>
        <mxCell id="3meQ3bszGM3F0p9aKv_--46" value="" style="endArrow=none;html=1;rounded=0;exitX=0.162;exitY=-0.002;exitDx=0;exitDy=0;exitPerimeter=0;" edge="1" parent="1" source="3meQ3bszGM3F0p9aKv_--2">
          <mxGeometry width="50" height="50" relative="1" as="geometry">
            <mxPoint x="500" y="95" as="sourcePoint" />
            <mxPoint x="550" y="45" as="targetPoint" />
          </mxGeometry>
        </mxCell>
        <mxCell id="3meQ3bszGM3F0p9aKv_--47" value="" style="endArrow=none;html=1;rounded=0;exitX=0;exitY=1;exitDx=0;exitDy=0;entryX=0.901;entryY=0.006;entryDx=0;entryDy=0;entryPerimeter=0;" edge="1" parent="1" source="3meQ3bszGM3F0p9aKv_--38" target="3meQ3bszGM3F0p9aKv_--2">
          <mxGeometry width="50" height="50" relative="1" as="geometry">
            <mxPoint x="600" y="230" as="sourcePoint" />
            <mxPoint x="650" y="180" as="targetPoint" />
          </mxGeometry>
        </mxCell>
        <mxCell id="3meQ3bszGM3F0p9aKv_--49" value="has" style="rhombus;whiteSpace=wrap;html=1;" vertex="1" parent="1">
          <mxGeometry x="355" y="220" width="135" height="120" as="geometry" />
        </mxCell>
        <mxCell id="3meQ3bszGM3F0p9aKv_--51" value="" style="endArrow=none;html=1;rounded=0;exitX=0.835;exitY=1.017;exitDx=0;exitDy=0;exitPerimeter=0;entryX=0;entryY=0.5;entryDx=0;entryDy=0;" edge="1" parent="1" source="3meQ3bszGM3F0p9aKv_--1" target="3meQ3bszGM3F0p9aKv_--49">
          <mxGeometry width="50" height="50" relative="1" as="geometry">
            <mxPoint x="360" y="150" as="sourcePoint" />
            <mxPoint x="410" y="100" as="targetPoint" />
          </mxGeometry>
        </mxCell>
        <mxCell id="3meQ3bszGM3F0p9aKv_--52" value="1" style="text;html=1;strokeColor=none;fillColor=none;align=center;verticalAlign=middle;whiteSpace=wrap;rounded=0;" vertex="1" parent="1">
          <mxGeometry x="250" y="250" width="60" height="30" as="geometry" />
        </mxCell>
        <mxCell id="3meQ3bszGM3F0p9aKv_--53" value="" style="endArrow=none;html=1;rounded=0;exitX=1;exitY=0.5;exitDx=0;exitDy=0;" edge="1" parent="1" source="3meQ3bszGM3F0p9aKv_--49" target="3meQ3bszGM3F0p9aKv_--2">
          <mxGeometry width="50" height="50" relative="1" as="geometry">
            <mxPoint x="360" y="150" as="sourcePoint" />
            <mxPoint x="410" y="100" as="targetPoint" />
          </mxGeometry>
        </mxCell>
        <mxCell id="3meQ3bszGM3F0p9aKv_--54" value="Text" style="text;html=1;strokeColor=none;fillColor=none;align=center;verticalAlign=middle;whiteSpace=wrap;rounded=0;" vertex="1" parent="1">
          <mxGeometry x="630" y="230" width="60" height="30" as="geometry" />
        </mxCell>
      </root>
    </mxGraphModel>
  </diagram>
</mxfile>
